ply
format ascii 1.0
comment VCGLIB generated
element vertex 9
property float x
property float y
property float z
property float nx
property float ny
property float nz
property float my_nx
property float my_ny
property float my_nz
end_header
0.897463216 2.126984501 10.774651039 11.336599708 12.754133109 20.446792313 21.154869874 22.672582938 23.777418966
1.266789413 2.541309878 10.937518642 11.883029568 12.004672972 20.882394761 21.658392345 22.425938647 23.009876543
0.312564897 2.994318764 10.320149863 11.731649432 12.663421908 20.331983465 21.228786651 22.540123989 23.446798765
0.835417896 2.874163423 10.619874598 11.452316987 12.540198746 20.728194687 21.932165487 22.874561235 23.398751264
0.215487963 2.112358743 10.991246877 11.009762654 12.654897123 20.874563214 21.541298765 22.209876543 23.654987123
0.894657321 2.654897123 10.987654321 11.876543219 12.765432109 20.654321987 21.543219876 22.432109876 23.321098765
0.123456789 2.345678912 10.456789123 11.567891234 12.678912345 20.789123456 21.891234567 22.987654321 23.654321987
0.432109876 2.543219876 10.345678912 11.654321987 12.789123456 20.567891234 21.678912345 22.891234567 23.456789123
0.789123456 2.987654321 10.432109876 11.321098765 12.654321987 20.891234567 21.456789123 22.567891234 23.345678912
